<svg width="44" height="44" xmlns="http://www.w3.org/2000/svg" xmlns:xlink="http://www.w3.org/1999/xlink"><defs><circle id="a" cx="22" cy="22" r="22"/></defs><g fill="none" fill-rule="evenodd"><path d="M0 0h44v44H0z"/><g><use fill="#2E3338" xlink:href="#a"/><circle stroke="#FBFBFB" stroke-width="2" cx="22" cy="22" r="21"/></g><path d="M10 22.3c0 5.44 3.44 10.05 8.2 11.68.6.11.83-.27.83-.6L19 31.3c-3.34.75-4.04-1.65-4.04-1.65-.55-1.42-1.34-1.8-1.34-1.8-1.08-.76.09-.74.09-.74 1.2.08 1.84 1.26 1.84 1.26 1.07 1.88 2.8 1.34 3.49 1.03.1-.8.42-1.34.76-1.65-2.67-.3-5.47-1.36-5.47-6.08 0-1.34.47-2.44 1.24-3.3a4.53 4.53 0 0 1 .12-3.26s1-.33 3.3 1.26a11.23 11.23 0 0 1 6 0c2.3-1.59 3.3-1.26 3.3-1.26.66 1.7.24 2.95.12 3.26a4.82 4.82 0 0 1 1.23 3.3c0 4.73-2.8 5.77-5.47 6.07.43.38.81 1.13.81 2.28l-.01 3.38c0 .33.21.7.82.59A12.28 12.28 0 0 0 34 22.3C34 15.5 28.63 10 22 10s-12 5.5-12 12.3z" fill="#FBFBFB"/></g></svg>