<svg width="44" height="44" xmlns="http://www.w3.org/2000/svg" xmlns:xlink="http://www.w3.org/1999/xlink"><defs><circle id="a" cx="22" cy="22" r="22"/></defs><g fill="none" fill-rule="evenodd"><path d="M0 0h44v44H0z"/><g><use fill="#2E3338" xlink:href="#a"/><circle stroke="#FBFBFB" stroke-width="2" cx="22" cy="22" r="21"/></g><path d="M22 12.98c2.94 0 3.28.01 4.44.07 1.08.05 1.66.22 2.05.37.51.2.88.44 1.26.83.39.38.63.75.83 1.26.15.39.32.97.37 2.05.06 1.16.07 1.5.07 4.44 0 2.94-.01 3.29-.07 4.44a6.09 6.09 0 0 1-.37 2.05c-.2.51-.44.88-.83 1.26a3.4 3.4 0 0 1-1.26.83c-.39.15-.97.32-2.05.37-1.15.06-1.5.07-4.44.07-2.94 0-3.29-.01-4.44-.07a6.09 6.09 0 0 1-2.05-.37 3.4 3.4 0 0 1-1.26-.83 3.4 3.4 0 0 1-.83-1.26 6.09 6.09 0 0 1-.37-2.05c-.06-1.15-.07-1.5-.07-4.44 0-2.94.01-3.28.07-4.44.05-1.08.22-1.66.37-2.05.2-.51.44-.88.83-1.26a3.4 3.4 0 0 1 1.26-.83c.39-.15.97-.32 2.05-.37 1.15-.06 1.5-.07 4.44-.07M22 11c2.99 0 3.36.01 4.54.07 1.17.05 1.97.24 2.67.5a5.4 5.4 0 0 1 1.94 1.28 5.4 5.4 0 0 1 1.27 1.94c.27.7.46 1.5.51 2.67.06 1.18.07 1.55.07 4.54s-.01 3.36-.07 4.54a8.07 8.07 0 0 1-.5 2.67 5.4 5.4 0 0 1-1.28 1.94 5.4 5.4 0 0 1-1.94 1.27c-.7.27-1.5.46-2.67.51-1.18.06-1.55.07-4.54.07s-3.36-.01-4.54-.07a8.07 8.07 0 0 1-2.67-.5 5.4 5.4 0 0 1-1.94-1.28 5.4 5.4 0 0 1-1.27-1.94c-.27-.7-.46-1.5-.51-2.67A78.05 78.05 0 0 1 11 22c0-2.99.01-3.36.07-4.54.05-1.17.24-1.97.5-2.67a5.4 5.4 0 0 1 1.28-1.94 5.4 5.4 0 0 1 1.94-1.27c.7-.27 1.5-.46 2.67-.51C18.64 11 19.01 11 22 11zm.02 5.37a5.65 5.65 0 1 0 0 11.3 5.65 5.65 0 0 0 0-11.3zm0 9.32a3.67 3.67 0 1 1 0-7.34 3.67 3.67 0 0 1 0 7.34zm7.14-9.58a1.3 1.3 0 1 0-2.62 0 1.3 1.3 0 0 0 2.62 0z" fill="#FBFBFB"/></g></svg>