<svg width="44" height="44" xmlns="http://www.w3.org/2000/svg" xmlns:xlink="http://www.w3.org/1999/xlink"><defs><circle id="a" cx="22" cy="22" r="22"/></defs><g fill="none" fill-rule="evenodd"><path d="M0 0h44v44H0z"/><g><use fill="#2E3338" xlink:href="#a"/><circle stroke="#FBFBFB" stroke-width="2" cx="22" cy="22" r="21"/></g><path d="M12.5 18.41h3.9V32h-3.9V18.4zm1.85-1.7h-.02A2.25 2.25 0 0 1 12 14.36c0-1.34.94-2.36 2.38-2.36s2.32 1.02 2.35 2.36c0 1.31-.91 2.35-2.38 2.35zM32 32h-4.42v-7.03c0-1.84-.7-3.1-2.21-3.1-1.17 0-1.81.85-2.11 1.67-.12.29-.1.7-.1 1.1V32h-4.38s.06-12.45 0-13.59h4.38v2.14c.26-.94 1.66-2.27 3.9-2.27 2.76 0 4.94 1.96 4.94 6.16V32z" fill="#FBFBFB"/></g></svg>