<svg width="44" height="44" xmlns="http://www.w3.org/2000/svg"><g fill="none" fill-rule="evenodd"><path d="M0 0h44v44H0z"/><circle stroke="#343A40" stroke-width="2" cx="22" cy="22" r="21"/><path d="M13.11 18.93a5.9 5.9 0 0 1-1.43-1.31c-.45-.56-.68-1.07-.68-1.55 0-.6.17-1.09.5-1.48.35-.4.83-.59 1.46-.59h18.08c.53 0 .99.18 1.38.53.39.36.58.79.58 1.29 0 .6-.2 1.17-.6 1.71-.4.55-.9 1.02-1.5 1.4a10274.02 10274.02 0 0 0-7.57 4.84c-.25.14-.48.24-.7.3-.22.08-.43.11-.62.11H22c-.2 0-.4-.03-.62-.1a3.85 3.85 0 0 1-.7-.3 12.92 12.92 0 0 1-1.3-.8l-.53-.36a624.1 624.1 0 0 0-5.73-3.69zm18.66 1.22c.47-.3.88-.63 1.23-1v9.03c0 .5-.2.93-.58 1.29-.38.35-.84.53-1.38.53H12.96c-.54 0-1-.18-1.38-.53a1.69 1.69 0 0 1-.58-1.29v-9.02c.36.37.77.7 1.24.99a247.13 247.13 0 0 1 7.24 4.66c.29.18.67.36 1.16.55.48.18.93.28 1.35.28H22c.42 0 .87-.1 1.35-.28.49-.19.87-.37 1.16-.55a256.68 256.68 0 0 1 7.25-4.66z" fill="#343A40"/></g></svg>