<svg width="44" height="44" xmlns="http://www.w3.org/2000/svg"><g fill="none" fill-rule="evenodd"><path d="M0 0h44v44H0z"/><circle stroke="#343A40" stroke-width="2" cx="22" cy="22" r="21"/><path d="M27.13 24.2c-1.46 1.47-1.46 2.93-2.93 2.93-1.47 0-2.93-1.46-4.4-2.93-1.47-1.47-2.93-2.93-2.93-4.4 0-1.47 1.46-1.47 2.93-2.93C21.27 15.4 16.87 11 15.4 11c-1.47 0-4.4 4.4-4.4 4.4 0 2.93 3.01 8.88 5.87 11.73C19.72 30 25.67 33 28.6 33c0 0 4.4-2.93 4.4-4.4 0-1.47-4.4-5.87-5.87-4.4" fill="#343A40"/></g></svg>