<svg width="44" height="44" xmlns="http://www.w3.org/2000/svg"><g fill="none" fill-rule="evenodd"><path d="M0 0h44v44H0z"/><circle stroke="#343A40" stroke-width="2" cx="22" cy="22" r="21"/><path d="M33.31 24.55A11.37 11.37 0 0 0 20.17 11 6.67 6.67 0 0 0 10 16.54c0 1.2.33 2.33.91 3.3a11.37 11.37 0 0 0 13.31 13.37c.94.5 2 .78 3.14.78A6.6 6.6 0 0 0 34 27.45c0-1.04-.25-2.03-.69-2.9zm-5.4 2.94a5.2 5.2 0 0 1-2.33 1.74c-1 .4-2.2.62-3.57.62a8.85 8.85 0 0 1-4.1-.85c-.77-.4-1.4-.96-1.89-1.65a3.56 3.56 0 0 1-.73-2.04c0-.41.16-.77.48-1.06.31-.3.71-.44 1.2-.44.39 0 .73.11 1 .34.26.22.49.55.67.97.2.46.43.85.66 1.15.22.3.55.54.96.73a4 4 0 0 0 1.66.3c.95 0 1.72-.2 2.3-.6.58-.38.85-.84.85-1.4 0-.45-.14-.8-.44-1.08s-.72-.5-1.22-.66c-.52-.16-1.23-.33-2.1-.52-1.19-.25-2.2-.54-3-.88a4.95 4.95 0 0 1-1.97-1.42 3.5 3.5 0 0 1-.74-2.26c0-.85.27-1.62.78-2.28a4.83 4.83 0 0 1 2.22-1.52 9.85 9.85 0 0 1 3.36-.53c1.02 0 1.92.12 2.67.35.76.23 1.4.54 1.9.93s.87.8 1.1 1.23c.24.44.36.87.36 1.29 0 .4-.15.77-.47 1.09-.3.32-.7.48-1.17.48-.42 0-.76-.1-.99-.3a3.71 3.71 0 0 1-.68-.9 3.72 3.72 0 0 0-1.03-1.25c-.38-.29-1.02-.43-1.9-.43-.83 0-1.5.16-2 .48-.47.3-.7.66-.7 1.08 0 .26.07.47.23.66.16.2.39.36.68.5.3.16.61.28.92.36.32.09.85.22 1.58.38.93.2 1.78.42 2.54.66.76.24 1.42.53 1.95.88.55.35.99.8 1.3 1.34.3.54.46 1.21.46 1.99 0 .93-.27 1.78-.8 2.52z" fill="#343A40"/></g></svg>