<svg width="44" height="44" xmlns="http://www.w3.org/2000/svg"><g fill="none" fill-rule="evenodd"><path d="M0 0h44v44H0z"/><circle stroke="#343A40" stroke-width="2" cx="22" cy="22" r="21"/><path d="M30.66 11.15c.27.2.38.46.33.78L27.85 30.8a.77.77 0 0 1-.78.65.83.83 0 0 1-.3-.06l-6.46-2.64-3.66 4.01a.72.72 0 0 1-.58.26.7.7 0 0 1-.28-.05.74.74 0 0 1-.37-.29.79.79 0 0 1-.13-.45v-5.54l-5.8-2.37a.72.72 0 0 1-.49-.68.72.72 0 0 1 .4-.72l20.42-11.79a.71.71 0 0 1 .84.03zm-4.2 18.4l2.71-16.24-17.6 10.15 4.12 1.68 10.6-7.84-5.87 9.78 6.04 2.47z" fill="#343A40"/></g></svg>