<svg width="44" height="44" xmlns="http://www.w3.org/2000/svg"><g fill="none" fill-rule="evenodd"><path d="M0 0h44v44H0z"/><circle stroke="#343A40" stroke-width="2" cx="22" cy="22" r="21"/><path d="M33.31 24.547c.174-.781.264-1.59.264-2.422 0-6.231-5.124-11.285-11.446-11.285-.667 0-1.32.057-1.958.165A6.674 6.674 0 0016.64 10C12.971 10 10 12.93 10 16.546c0 1.208.334 2.339.913 3.31a11.146 11.146 0 00-.231 2.27c0 6.234 5.123 11.285 11.446 11.285.716 0 1.417-.064 2.096-.187a6.688 6.688 0 003.138.776C31.028 34 34 31.07 34 27.454c0-1.044-.248-2.03-.69-2.907zm-5.402 2.94c-.527.74-1.31 1.325-2.325 1.74-1.004.411-2.207.62-3.576.62-1.645 0-3.023-.285-4.1-.847a5.33 5.33 0 01-1.884-1.65c-.486-.69-.733-1.376-.733-2.039 0-.413.161-.77.477-1.064.315-.292.716-.438 1.195-.438.394 0 .734.115 1.01.343.262.222.488.549.671.969.202.459.423.844.656 1.148.225.294.55.54.96.733.415.193.975.292 1.663.292.946 0 1.722-.199 2.306-.593.57-.382.847-.844.847-1.408 0-.445-.144-.794-.442-1.071-.312-.287-.722-.51-1.222-.664a24.566 24.566 0 00-2.1-.513c-1.188-.25-2.197-.548-3-.884-.82-.345-1.483-.823-1.967-1.42-.49-.607-.74-1.366-.74-2.262 0-.852.262-1.621.777-2.284.512-.658 1.26-1.17 2.222-1.519.952-.346 2.08-.523 3.359-.523 1.023 0 1.92.118 2.671.346.755.231 1.39.544 1.891.93.502.388.88.801 1.113 1.233.237.435.357.868.357 1.288 0 .403-.156.77-.47 1.09a1.58 1.58 0 01-1.175.483c-.423 0-.755-.102-.985-.301-.214-.19-.436-.48-.683-.9-.285-.533-.63-.955-1.027-1.251-.385-.29-1.029-.436-1.912-.436-.82 0-1.488.163-1.984.483-.477.309-.709.662-.709 1.082 0 .258.075.472.229.656.162.199.392.368.682.512.3.15.612.268.921.352.317.087.852.215 1.583.382.927.198 1.78.416 2.532.654.762.242 1.42.536 1.958.882.548.352.983.803 1.29 1.343.31.542.466 1.212.466 1.99a4.23 4.23 0 01-.802 2.516z" fill="#343A40"/></g></svg>