<svg width="44" height="44" xmlns="http://www.w3.org/2000/svg"><g fill="none" fill-rule="evenodd"><path d="M0 0h44v44H0z"/><circle stroke="#343A40" stroke-width="2" cx="22" cy="22" r="21"/><path d="M30.656 11.148c.27.196.38.458.332.785l-3.143 18.855a.774.774 0 01-.393.552.753.753 0 01-.675.037l-6.469-2.64-3.658 4.015a.724.724 0 01-.577.258.699.699 0 01-.282-.05.737.737 0 01-.368-.288.79.79 0 01-.135-.448v-5.548l-5.794-2.37c-.303-.114-.467-.34-.491-.675-.025-.319.106-.56.393-.724l20.426-11.784c.286-.172.564-.164.834.025zm-4.198 18.4l2.713-16.24L11.568 23.46l4.125 1.681 10.593-7.844-5.867 9.784 6.04 2.467z" fill="#343A40"/></g></svg>